<!-- Generator: Adobe Illustrator 19.2.1, SVG Export Plug-In  -->
<svg version="1.1"
   xmlns="http://www.w3.org/2000/svg" xmlns:xlink="http://www.w3.org/1999/xlink" xmlns:a="http://ns.adobe.com/AdobeSVGViewerExtensions/3.0/"
   x="0px" y="0px" width="175px" height="175px" viewBox="0 0 175 175" style="enable-background:new 0 0 175 175;"
   xml:space="preserve">
<style type="text/css">
  .st0{fill:#FFFFFF;}
  .st1{opacity:0.4;}
  .st2{fill:#FFDE17;}
</style>
<defs>
</defs>
<g class="st1">
  <path class="st2" d="M74.6,35.6c-0.2-1.4-0.6-3-1.3-4.5c1.3-7.7,0.8-13.9-1.4-18.5c-2.4-4.9-8.3-7.2-13.1-7.2
    c-1.8,0-3.4,0.3-4.6,0.8c-4.8,2.1-6.7,10.2-6.7,15.2c0,3.4,0.6,6.7,1.4,10.1c-0.5,1.3-0.8,2.4-1,3.7c-0.8,5.3,1,9.9,2.6,12.8
    c-0.3,1.6-0.8,3.4-1.3,5.1c-1.6,5.3-3,10.4-0.2,13.6c1.8,2.2,4.5,3.4,7.5,3.4c2.9,0,5.6-1.1,7.7-3.4c2.2-2.4,3.7-9.1,5.3-17.2
    C71.6,47,75.2,41.7,74.6,35.6z M73.2,35.8c0.5,4.3-1.6,8.3-3.7,11c0.5-2.2,0.8-4,1.1-4.9c1-2.9,1.6-5.6,2.1-8.1
    C73,34.4,73.2,35.2,73.2,35.8z M50,21.6C50,16.5,51.9,10.3,55,9c1-0.5,2.2-0.6,3.5-0.6c3.8,0,8.8,1.8,10.7,5.6
    c1.8,3.5,2.2,8.1,1.6,13.9c-2.4-2.7-5.9-5.3-10.4-7.3c-0.3-0.3-0.8-2.4-1-4.5c0,0,0,0,0-0.2v-0.2l0,0c-0.2-0.2-0.3-0.3-0.6-0.3l0,0
    l0,0c0,0,0,0-0.2,0h-0.2c0,0,0,0-0.2,0c0,0,0,0-0.2,0.2c0,0,0,0,0,0.2v0.2V16c0,0,0,0,0,0.2c0.2,1.9,0,4.1-0.2,4.6
    c-3,2.2-5.4,4.5-7.2,7C50.4,25.8,50,23.7,50,21.6z M49.1,35.6c0-0.3,0.2-0.8,0.3-1.1c0.8,3.4,1.4,6.5,1.4,9.4c0,0.6,0,1.3-0.2,1.9
    C49.6,43.1,48.6,39.5,49.1,35.6z M61.8,65c-1.4,1.6-3.5,2.6-5.6,2.6s-4.1-1-5.4-2.4c-1.8-2.2-0.6-6.5,0.8-11c0.3-1,0.5-1.9,0.8-2.9
    h0.2c0.2,0,0.3,0,0.5-0.2c0.3-0.2,0.3-0.6,0.2-1c0,0-0.2-0.2-0.3-0.5c0.5-1.9,0.8-3.8,0.8-5.6c0-3.5-0.8-7.3-1.8-11.2
    c-0.2-1-0.5-2.1-0.6-3c1.6-2.9,4.1-5.6,7.7-8c0.2-0.2,0.3-0.2,0.5-0.8c0.2,0.3,0.3,0.5,0.5,0.6c4.9,2.4,8.6,5.1,10.9,8.1
    c-0.5,3.4-1.4,7.2-2.7,11.3c-0.5,1.3-0.8,3.8-1.4,6.9c-0.2,1-0.3,1.9-0.5,2.9C66,51.1,66,51.1,66,51.1c-0.3,0.3-0.3,0.6-0.2,1l0,0
    C64.7,57.4,63.4,63.3,61.8,65z"/>
  <path class="st2" d="M23.5,57.2c1.4,8,2.9,14.8,5.3,17.2c2.1,2.2,4.8,3.4,7.7,3.4c3,0,5.7-1.3,7.5-3.4c2.7-3.4,1.3-8.3-0.2-13.6
    c-0.5-1.8-1-3.4-1.3-5.1C44,53,45.9,48.3,45.1,43c-0.2-1.3-0.5-2.6-1-3.7c0.8-3.4,1.4-6.7,1.4-10.1c0-4.9-1.9-13.1-6.7-15.2
    c-1.3-0.5-2.9-0.8-4.6-0.8c-4.8,0-10.7,2.2-13.1,7.2c-2.6,4.5-3,10.7-1.8,18.4c-0.6,1.4-1.1,2.9-1.3,4.5
    C17.3,49.2,21,54.5,23.5,57.2z M19.9,41.2c0.5,2.6,1.3,5.3,2.1,8.1c0.3,1,0.6,2.9,1.1,4.9c-2.1-2.7-4.1-6.7-3.7-11
    C19.4,42.7,19.5,41.9,19.9,41.2z M41.9,35.3c-1.8-2.6-4.1-4.9-7.2-7c-0.2-0.5-0.3-2.7-0.2-4.6v-0.2v-0.2v-0.2c0,0,0,0,0-0.2
    c0,0,0,0-0.2-0.2c0,0,0,0-0.2,0h-0.2c0,0,0,0-0.2,0l0,0l0,0c-0.2,0-0.5,0.2-0.6,0.3l0,0v0.2c0,0,0,0,0,0.2c-0.3,2.1-0.8,4.1-1,4.5
    c-4.6,2.2-8,4.6-10.4,7.3c-0.6-5.7-0.2-10.4,1.6-13.9c1.9-3.8,6.9-5.6,10.7-5.6c1.4,0,2.6,0.2,3.5,0.6c3,1.3,4.9,7.5,4.9,12.6
    C42.5,31.2,42.2,33.3,41.9,35.3z M41.9,53.2c0-0.6-0.2-1.3-0.2-1.9c0-2.9,0.6-6.1,1.4-9.4c0.2,0.3,0.2,0.8,0.3,1.1
    C44,47,43,50.6,41.9,53.2z M26.7,59.4L26.7,59.4c0.3-0.3,0.3-0.8,0-1c0,0,0,0-0.2-0.2c-0.2-1-0.3-2.1-0.5-2.9c-0.5-3-1-5.4-1.4-6.9
    c-1.3-4.1-2.1-7.8-2.7-11.3c2.2-3,5.9-5.7,10.9-8.1c0.2-0.2,0.3-0.3,0.5-0.6c0.2,0.6,0.3,0.6,0.5,0.8c3.5,2.4,6.1,5.1,7.7,8
    c-0.2,1-0.5,2.1-0.6,3C40,43.9,39,47.8,39,51.4c0,1.9,0.3,3.7,0.8,5.6c-0.2,0.3-0.3,0.5-0.3,0.5c-0.2,0.3-0.2,0.8,0.2,1
    c0.2,0.2,0.3,0.2,0.5,0.2h0.2c0.3,1,0.5,1.9,0.8,2.9c1.3,4.6,2.6,8.9,0.8,11c-1.3,1.4-3.2,2.4-5.4,2.4c-2.1,0-4.1-1-5.6-2.6
    C29.1,70.8,27.8,64.9,26.7,59.4z"/>
</g>
<g class="st1">
  <g>
    <path class="st2" d="M152,32.1c-0.8-0.1-1.7-0.3-2.5-0.4c-3.1-0.3-4.9-0.7-6-2.6c-1.3-2.4-0.1-4.6,1-7.2c0.3-0.4,0.4-1,0.7-1.5
      l1-2.5l-2.6,0.8c-0.8,0.3-1.5,0.6-2.2,0.8c-1.5,0.7-3.1,1.3-4.5,1.3c-0.8,0-1.5-0.1-2.2-0.6c-2.4-1.3-2.5-3.6-2.6-6.1
      c0-0.4,0-0.8-0.1-1.3l-0.1-1.9L130,12c-0.8,0.6-1.5,1.3-2.4,1.8c-1.7,1.4-3.3,2.8-5.1,3.2c-0.3,0.1-0.6,0.1-0.8,0.1
      c-1.7,0-2.8-1.7-3.9-3.2c-0.4-0.6-0.8-1.3-1.4-1.7l-1.1-1.4l-0.8,1.5c-0.4,0.8-0.8,1.8-1.3,2.8c-0.8,1.9-1.7,3.9-2.9,5.1
      c-0.6,0.6-1.1,0.7-1.9,0.7c-1.1,0-2.5-0.6-4-1.3c-0.7-0.3-1.5-0.7-2.2-1l-2.1-0.4l0.6,2.2c1.3,5,1.8,7.8,1.1,9
      c-0.7,1.3-3.5,1.8-8.1,2.9l-2.1,0.6l1.5,1.5c0.7,0.7,1.5,1.4,2.2,1.9c1.8,1.5,3.5,2.8,3.3,5c0,1.9-1.1,3.1-2.9,4.6h8.8
      c-0.4-1.4-0.6-2.9-0.6-4.3c0-5,1.8-9.7,5.3-13.2c3.5-3.6,8.1-5.6,12.9-5.7c0.1,0,0.1,0,0.3,0c10.7,0,18.8,7.9,18.9,18.5
      c0,1.7-0.1,3.2-0.6,4.7h9c-1.9-1.5-3.2-2.6-3.1-4.7c0-2.2,1.5-3.5,3.8-5.1c0.7-0.6,1.4-1,2.1-1.7l1.9-1.7L152,32.1z"/>
    <path class="st2" d="M138.2,40.4c0.1,1.7-0.3,3.8-0.8,5.6h-2.9c0.6-4.6-0.8-8.9-4.9-12.7c-5.8-5.4-12.5-5.6-19.6-1.5
      c1.5-3.5,7.9-7.7,15.2-6.4C132.5,26.4,137.8,32.6,138.2,40.4z"/>
  </g>
  <path class="st2" d="M151.7,52.2H94.1c-0.8,0-1.5-0.7-1.5-1.5s0.7-1.5,1.5-1.5h57.5c0.8,0,1.5,0.7,1.5,1.5
    C153.1,51.5,152.5,52.2,151.7,52.2z"/>
  <path class="st2" d="M148.1,60.7H97.7c-0.8,0-1.5-0.7-1.5-1.5s0.7-1.5,1.5-1.5h50.4c0.8,0,1.5,0.7,1.5,1.5S148.9,60.7,148.1,60.7z"
    />
  <path class="st2" d="M143.1,69.2h-40.4c-0.8,0-1.5-0.7-1.5-1.5c0-0.8,0.7-1.5,1.5-1.5h40.4c0.8,0,1.5,0.7,1.5,1.5
    C144.6,68.5,143.9,69.2,143.1,69.2z"/>
</g>
<g class="st1">
  <path class="st2" d="M161.8,128.9c-0.2-1.4-0.6-3-1.3-4.5c1.3-7.7,0.8-13.9-1.4-18.5c-2.4-4.9-8.3-7.2-13.1-7.2
    c-1.8,0-3.4,0.3-4.6,0.8c-4.8,2.1-6.7,10.2-6.7,15.2c0,3.4,0.6,6.7,1.4,10.1c-0.5,1.3-0.8,2.4-1,3.7c-0.8,5.3,1,9.9,2.6,12.8
    c-0.3,1.6-0.8,3.4-1.3,5.1c-1.6,5.3-3,10.4-0.2,13.6c1.8,2.2,4.5,3.4,7.5,3.4c2.9,0,5.6-1.1,7.7-3.4c2.2-2.4,3.7-9.1,5.3-17.2
    C158.8,140.2,162.5,134.9,161.8,128.9z M160.4,129c0.5,4.3-1.6,8.3-3.7,11c0.5-2.2,0.8-4,1.1-4.9c1-2.9,1.6-5.6,2.1-8.1
    C160.2,127.6,160.4,128.4,160.4,129z M137.3,114.8c0-5.1,1.9-11.3,4.9-12.6c1-0.5,2.2-0.6,3.5-0.6c3.8,0,8.8,1.8,10.7,5.6
    c1.8,3.5,2.2,8.1,1.6,13.9c-2.4-2.7-5.9-5.3-10.4-7.3c-0.3-0.3-0.8-2.4-1-4.5c0,0,0,0,0-0.2v-0.2l0,0c-0.2-0.2-0.3-0.3-0.6-0.3l0,0
    l0,0c0,0,0,0-0.2,0h-0.2c0,0,0,0-0.2,0c0,0,0,0-0.2,0.2c0,0,0,0,0,0.2v0.2v0.2c0,0,0,0,0,0.2c0.2,1.9,0,4.1-0.2,4.6
    c-3,2.2-5.4,4.5-7.2,7C137.6,119,137.3,116.9,137.3,114.8z M136.3,128.9c0-0.3,0.2-0.8,0.3-1.1c0.8,3.4,1.4,6.5,1.4,9.4
    c0,0.6,0,1.3-0.2,1.9C136.8,136.4,135.8,132.7,136.3,128.9z M149.1,158.2c-1.4,1.6-3.5,2.6-5.6,2.6s-4.1-1-5.4-2.4
    c-1.8-2.2-0.6-6.5,0.8-11c0.3-1,0.5-1.9,0.8-2.9h0.2c0.2,0,0.3,0,0.5-0.2c0.3-0.2,0.3-0.6,0.2-1c0,0-0.2-0.2-0.3-0.5
    c0.5-1.9,0.8-3.8,0.8-5.6c0-3.5-0.8-7.3-1.8-11.2c-0.2-1-0.5-2.1-0.6-3c1.6-2.9,4.1-5.6,7.7-8c0.2-0.2,0.3-0.2,0.5-0.8
    c0.2,0.3,0.3,0.5,0.5,0.6c4.9,2.4,8.6,5.1,10.9,8.1c-0.5,3.4-1.4,7.2-2.7,11.3c-0.5,1.3-0.8,3.8-1.4,6.9c-0.2,1-0.3,1.9-0.5,2.9
    c-0.2,0.2-0.2,0.2-0.2,0.2c-0.3,0.3-0.3,0.6-0.2,1l0,0C151.9,150.6,150.7,156.5,149.1,158.2z"/>
  <path class="st2" d="M110.8,150.4c1.4,8,2.9,14.8,5.3,17.2c2.1,2.2,4.8,3.4,7.7,3.4c3,0,5.7-1.3,7.5-3.4c2.7-3.4,1.3-8.3-0.2-13.6
    c-0.5-1.8-1-3.4-1.3-5.1c1.4-2.7,3.4-7.5,2.6-12.8c-0.2-1.3-0.5-2.6-1-3.7c0.8-3.4,1.4-6.7,1.4-10.1c0-4.9-1.9-13.1-6.7-15.2
    c-1.3-0.5-2.9-0.8-4.6-0.8c-4.8,0-10.7,2.2-13.1,7.2c-2.6,4.5-3,10.7-1.8,18.4c-0.6,1.4-1.1,2.9-1.3,4.5
    C104.5,142.4,108.2,147.7,110.8,150.4z M107.1,134.5c0.5,2.6,1.3,5.3,2.1,8.1c0.3,1,0.6,2.9,1.1,4.9c-2.1-2.7-4.1-6.7-3.7-11
    C106.6,135.9,106.8,135.1,107.1,134.5z M129.1,128.5c-1.8-2.6-4.1-4.9-7.2-7c-0.2-0.5-0.3-2.7-0.2-4.6v-0.2v-0.2v-0.2
    c0,0,0,0,0-0.2c0,0,0,0-0.2-0.2c0,0,0,0-0.2,0h-0.2c0,0,0,0-0.2,0l0,0l0,0c-0.2,0-0.5,0.2-0.6,0.3l0,0v0.2c0,0,0,0,0,0.2
    c-0.3,2.1-0.8,4.1-1,4.5c-4.6,2.2-8,4.6-10.4,7.3c-0.6-5.7-0.2-10.4,1.6-13.9c1.9-3.8,6.9-5.6,10.7-5.6c1.4,0,2.6,0.2,3.5,0.6
    c3,1.3,4.9,7.5,4.9,12.6C129.8,124.4,129.4,126.5,129.1,128.5z M129.1,146.4c0-0.6-0.2-1.3-0.2-1.9c0-2.9,0.6-6.1,1.4-9.4
    c0.2,0.3,0.2,0.8,0.3,1.1C131.2,140.2,130.2,143.9,129.1,146.4z M114,152.6L114,152.6c0.3-0.3,0.3-0.8,0-1c0,0,0,0-0.2-0.2
    c-0.2-1-0.3-2.1-0.5-2.9c-0.5-3-1-5.4-1.4-6.9c-1.3-4.1-2.1-7.8-2.7-11.3c2.2-3,5.9-5.7,10.9-8.1c0.2-0.2,0.3-0.3,0.5-0.6
    c0.2,0.6,0.3,0.6,0.5,0.8c3.5,2.4,6.1,5.1,7.7,8c-0.2,1-0.5,2.1-0.6,3c-0.8,3.7-1.8,7.5-1.8,11.2c0,1.9,0.3,3.7,0.8,5.6
    c-0.2,0.3-0.3,0.5-0.3,0.5c-0.2,0.3-0.2,0.8,0.2,1c0.2,0.2,0.3,0.2,0.5,0.2h0.2c0.3,1,0.5,1.9,0.8,2.9c1.3,4.6,2.6,8.9,0.8,11
    c-1.3,1.4-3.2,2.4-5.4,2.4c-2.1,0-4.1-1-5.6-2.6C116.3,164,115.1,158.1,114,152.6z"/>
</g>
<g class="st1">
  <g>
    <path class="st2" d="M83.6,125.3c-0.8-0.1-1.7-0.3-2.5-0.4c-3.1-0.3-4.9-0.7-6-2.6c-1.3-2.4-0.1-4.6,1-7.2c0.3-0.4,0.4-1,0.7-1.5
      l1-2.5l-2.6,0.8c-0.8,0.3-1.5,0.6-2.2,0.8c-1.5,0.7-3.1,1.3-4.5,1.3c-0.8,0-1.5-0.1-2.2-0.6c-2.4-1.3-2.5-3.6-2.6-6.1
      c0-0.4,0-0.8-0.1-1.3l-0.1-1.9l-1.7,1.1c-0.8,0.6-1.5,1.3-2.4,1.8c-1.7,1.4-3.3,2.8-5.1,3.2c-0.3,0.1-0.6,0.1-0.8,0.1
      c-1.7,0-2.8-1.7-3.9-3.2c-0.4-0.6-0.8-1.3-1.4-1.7l-1.1-1.4l-0.8,1.5c-0.4,0.8-0.8,1.8-1.3,2.8c-0.8,1.9-1.7,3.9-2.9,5.1
      c-0.6,0.6-1.1,0.7-1.9,0.7c-1.1,0-2.5-0.6-4-1.3c-0.7-0.3-1.5-0.7-2.2-1l-2.1-0.4l0.6,2.2c1.3,5,1.8,7.8,1.1,9
      c-0.7,1.3-3.5,1.8-8.1,2.9l-2.1,0.6l1.5,1.5c0.7,0.7,1.5,1.4,2.2,1.9c1.8,1.5,3.5,2.8,3.3,5c0,1.9-1.1,3.1-2.9,4.6H36
      c-0.4-1.4-0.6-2.9-0.6-4.3c0-5,1.8-9.7,5.3-13.2c3.5-3.6,8.1-5.6,12.9-5.7c0.1,0,0.1,0,0.3,0c10.7,0,18.8,7.9,18.9,18.5
      c0,1.7-0.1,3.2-0.6,4.7h9c-1.9-1.5-3.2-2.6-3.1-4.7c0-2.2,1.5-3.5,3.8-5.1c0.7-0.6,1.4-1,2.1-1.7l1.9-1.7L83.6,125.3z"/>
    <path class="st2" d="M69.8,133.5c0.1,1.7-0.3,3.8-0.8,5.6h-2.9c0.6-4.6-0.8-8.9-4.9-12.7c-5.8-5.4-12.5-5.6-19.6-1.5
      c1.5-3.5,7.9-7.7,15.2-6.4C64.1,119.6,69.4,125.7,69.8,133.5z"/>
  </g>
  <path class="st2" d="M83.3,145.3H25.7c-0.8,0-1.5-0.7-1.5-1.5s0.7-1.5,1.5-1.5h57.5c0.8,0,1.5,0.7,1.5,1.5S84.1,145.3,83.3,145.3z"
    />
  <path class="st2" d="M79.7,153.8H29.3c-0.8,0-1.5-0.7-1.5-1.5c0-0.8,0.7-1.5,1.5-1.5h50.4c0.8,0,1.5,0.7,1.5,1.5
    C81.2,153.1,80.5,153.8,79.7,153.8z"/>
  <path class="st2" d="M74.7,162.3H34.3c-0.8,0-1.5-0.7-1.5-1.5c0-0.8,0.7-1.5,1.5-1.5h40.4c0.8,0,1.5,0.7,1.5,1.5
    C76.2,161.6,75.5,162.3,74.7,162.3z"/>
</g>
</svg>
