<?xml version="1.0" encoding="utf-8"?>
<!-- Generator: Adobe Illustrator 19.2.1, SVG Export Plug-In . SVG Version: 6.00 Build 0)  -->
<svg version="1.1" id="Layer_1" xmlns="http://www.w3.org/2000/svg" xmlns:xlink="http://www.w3.org/1999/xlink" x="0px" y="0px"
	 viewBox="0 0 50 50" style="enable-background:new 0 0 50 50;" xml:space="preserve">
<g>
	<path d="M47.3,31.5L42.6,25l4.7-6.5c0.2-0.2,0.2-0.5,0.1-0.8c-0.1-0.3-0.2-0.4-0.5-0.5l-7.7-2.5V6.6c0-0.3-0.1-0.5-0.3-0.7
		c-0.3-0.2-0.5-0.2-0.8-0.1l-7.7,2.5l-4.7-6.5c-0.2-0.2-0.4-0.3-0.7-0.3c-0.3,0-0.5,0.1-0.7,0.3l-4.7,6.5l-7.7-2.5
		c-0.2-0.1-0.5-0.1-0.8,0.1c-0.2,0.2-0.3,0.4-0.3,0.7v8.1l-7.7,2.5c-0.3,0.1-0.5,0.3-0.5,0.5c-0.1,0.3-0.1,0.5,0.1,0.8L7.4,25
		l-4.7,6.5c-0.2,0.2-0.2,0.5-0.1,0.8c0.1,0.3,0.2,0.4,0.5,0.5l7.7,2.5v8.1c0,0.3,0.1,0.5,0.3,0.7c0.3,0.2,0.5,0.2,0.8,0.1l7.7-2.5
		l4.7,6.5c0.2,0.2,0.4,0.3,0.7,0.3c0.3,0,0.5-0.1,0.7-0.3l4.7-6.5l7.7,2.5c0.2,0.1,0.5,0.1,0.8-0.1c0.2-0.2,0.3-0.4,0.3-0.7v-8.1
		l7.7-2.5c0.3-0.1,0.5-0.3,0.5-0.5C47.5,32,47.5,31.7,47.3,31.5z M39,30.9c-0.8,1.9-1.9,3.5-3.2,4.8c-1.4,1.4-3,2.4-4.8,3.2
		c-1.9,0.8-3.8,1.2-5.9,1.2c-2.1,0-4-0.4-5.9-1.2c-1.9-0.8-3.5-1.9-4.8-3.2c-1.4-1.4-2.4-3-3.2-4.8C10.2,29,9.8,27,9.8,25
		c0-2.1,0.4-4,1.2-5.9c0.8-1.9,1.9-3.5,3.2-4.8c1.4-1.4,3-2.4,4.8-3.2c1.9-0.8,3.8-1.2,5.9-1.2c2.1,0,4,0.4,5.9,1.2
		c1.9,0.8,3.5,1.9,4.8,3.2c1.4,1.4,2.4,3,3.2,4.8c0.8,1.9,1.2,3.8,1.2,5.9C40.2,27,39.8,29,39,30.9z"/>
	<circle cx="25" cy="25" r="12.8"/>
</g>
</svg>
