<?xml version="1.0" encoding="utf-8"?>
<!-- Generator: Adobe Illustrator 19.2.1, SVG Export Plug-In . SVG Version: 6.00 Build 0)  -->
<svg version="1.1" id="Layer_1" xmlns="http://www.w3.org/2000/svg" xmlns:xlink="http://www.w3.org/1999/xlink" x="0px" y="0px"
	 viewBox="0 0 50 50" style="enable-background:new 0 0 50 50;" xml:space="preserve">
<g>
	<g>
		<path d="M46.3,19.3c-0.6-0.1-1.2-0.2-1.8-0.3c-2.2-0.2-3.5-0.5-4.3-1.9c-0.9-1.7-0.1-3.3,0.7-5.2c0.2-0.3,0.3-0.7,0.5-1.1L42.1,9
			l-1.9,0.6c-0.6,0.2-1.1,0.4-1.6,0.6c-1.1,0.5-2.2,0.9-3.2,0.9c-0.6,0-1.1-0.1-1.6-0.4c-1.7-0.9-1.8-2.6-1.9-4.4
			c0-0.3,0-0.6-0.1-0.9L31.7,4l-1.2,0.8c-0.6,0.4-1.1,0.9-1.7,1.3c-1.2,1-2.4,2-3.7,2.3c-0.2,0.1-0.4,0.1-0.6,0.1
			c-1.2,0-2-1.2-2.8-2.3c-0.3-0.4-0.6-0.9-1-1.2L19.9,4l-0.6,1.1c-0.3,0.6-0.6,1.3-0.9,2c-0.6,1.4-1.2,2.8-2.1,3.7
			c-0.4,0.4-0.8,0.5-1.4,0.5c-0.8,0-1.8-0.4-2.9-0.9c-0.5-0.2-1.1-0.5-1.6-0.7L8.9,9.4l0.4,1.6c0.9,3.6,1.3,5.6,0.8,6.5
			c-0.5,0.9-2.5,1.3-5.8,2.1l-1.5,0.4l1.1,1.1c0.5,0.5,1.1,1,1.6,1.4c1.3,1.1,2.5,2,2.4,3.6c0,1.4-0.8,2.2-2.1,3.3h6.3
			c-0.3-1-0.4-2.1-0.4-3.1c0-3.6,1.3-7,3.8-9.5c2.5-2.6,5.8-4,9.3-4.1c0.1,0,0.1,0,0.2,0c7.7,0,13.5,5.7,13.6,13.3
			c0,1.2-0.1,2.3-0.4,3.4h6.5c-1.4-1.1-2.3-1.9-2.2-3.4c0-1.6,1.1-2.5,2.7-3.7c0.5-0.4,1-0.7,1.5-1.2l1.4-1.2L46.3,19.3z"/>
		<path d="M36.4,25.2c0.1,1.2-0.2,2.7-0.6,4h-2.1c0.4-3.3-0.6-6.4-3.5-9.1c-4.2-3.9-9-4-14.1-1.1c1.1-2.5,5.7-5.5,10.9-4.6
			C32.3,15.2,36.1,19.6,36.4,25.2z"/>
	</g>
	<path d="M46.1,33.7H4.7c-0.6,0-1.1-0.5-1.1-1.1s0.5-1.1,1.1-1.1h41.3c0.6,0,1.1,0.5,1.1,1.1S46.7,33.7,46.1,33.7z"/>
	<path d="M43.5,39.8H7.3c-0.6,0-1.1-0.5-1.1-1.1s0.5-1.1,1.1-1.1h36.2c0.6,0,1.1,0.5,1.1,1.1S44.1,39.8,43.5,39.8z"/>
	<path d="M39.9,45.9h-29c-0.6,0-1.1-0.5-1.1-1.1s0.5-1.1,1.1-1.1h29c0.6,0,1.1,0.5,1.1,1.1S40.5,45.9,39.9,45.9z"/>
</g>
</svg>
