<?xml version="1.0" encoding="utf-8"?>
<!-- Generator: Adobe Illustrator 19.2.1, SVG Export Plug-In . SVG Version: 6.00 Build 0)  -->
<svg version="1.1" id="Layer_1" xmlns="http://www.w3.org/2000/svg" xmlns:xlink="http://www.w3.org/1999/xlink" x="0px" y="0px"
	 viewBox="0 0 50 50" style="enable-background:new 0 0 50 50;" xml:space="preserve">
<path d="M42.6,20.6c-0.1-0.9-0.4-1.9-0.8-2.8c0.8-4.8,0.5-8.7-0.9-11.6c-1.5-3.1-5.2-4.5-8.2-4.5c-1.1,0-2.1,0.2-2.9,0.5
	c-3,1.3-4.2,6.4-4.2,9.5c0,2.1,0.4,4.2,0.9,6.3c-0.3,0.8-0.5,1.5-0.6,2.3c-0.5,3.3,0.6,6.2,1.6,8c-0.2,1-0.5,2.1-0.8,3.2
	c-1,3.3-1.9,6.5-0.1,8.5c1.1,1.4,2.8,2.1,4.7,2.1c1.8,0,3.5-0.7,4.8-2.1c1.4-1.5,2.3-5.7,3.3-10.8C40.7,27.7,43,24.4,42.6,20.6z
	 M41.7,20.7c0.3,2.7-1,5.2-2.3,6.9c0.3-1.4,0.5-2.5,0.7-3.1c0.6-1.8,1-3.5,1.3-5.1C41.6,19.8,41.7,20.3,41.7,20.7z M27.2,11.8
	c0-3.2,1.2-7.1,3.1-7.9c0.6-0.3,1.4-0.4,2.2-0.4c2.4,0,5.5,1.1,6.7,3.5c1.1,2.2,1.4,5.1,1,8.7c-1.5-1.7-3.7-3.3-6.5-4.6
	c-0.2-0.2-0.5-1.5-0.6-2.8c0,0,0,0,0-0.1c0,0,0-0.1,0-0.1c0,0,0,0,0,0c-0.1-0.1-0.2-0.2-0.4-0.2c0,0,0,0,0,0c0,0,0,0,0,0
	c0,0,0,0-0.1,0c0,0-0.1,0-0.1,0c0,0,0,0-0.1,0c0,0,0,0-0.1,0.1c0,0,0,0,0,0.1c0,0,0,0.1,0,0.1c0,0,0,0.1,0,0.1c0,0,0,0,0,0.1
	c0.1,1.2,0,2.6-0.1,2.9c-1.9,1.4-3.4,2.8-4.5,4.4C27.4,14.4,27.2,13.1,27.2,11.8z M26.6,20.6c0-0.2,0.1-0.5,0.2-0.7
	c0.5,2.1,0.9,4.1,0.9,5.9c0,0.4,0,0.8-0.1,1.2C26.9,25.3,26.3,23,26.6,20.6z M34.6,39c-0.9,1-2.2,1.6-3.5,1.6
	c-1.3,0-2.6-0.6-3.4-1.5c-1.1-1.4-0.4-4.1,0.5-6.9c0.2-0.6,0.3-1.2,0.5-1.8c0,0,0.1,0,0.1,0c0.1,0,0.2,0,0.3-0.1
	c0.2-0.1,0.2-0.4,0.1-0.6c0,0-0.1-0.1-0.2-0.3c0.3-1.2,0.5-2.4,0.5-3.5c0-2.2-0.5-4.6-1.1-7c-0.1-0.6-0.3-1.3-0.4-1.9
	c1-1.8,2.6-3.5,4.8-5c0.1-0.1,0.2-0.1,0.3-0.5c0.1,0.2,0.2,0.3,0.3,0.4c3.1,1.5,5.4,3.2,6.8,5.1c-0.3,2.1-0.9,4.5-1.7,7.1
	c-0.3,0.8-0.5,2.4-0.9,4.3c-0.1,0.6-0.2,1.2-0.3,1.8c-0.1,0.1-0.1,0.1-0.1,0.1c-0.2,0.2-0.2,0.4-0.1,0.6c0,0,0,0,0,0
	C36.4,34.2,35.6,37.9,34.6,39z"/>
<path d="M10.6,34.1c0.9,5,1.8,9.3,3.3,10.8c1.3,1.4,3,2.1,4.8,2.1c1.9,0,3.6-0.8,4.7-2.1c1.7-2.1,0.8-5.2-0.1-8.5
	c-0.3-1.1-0.6-2.1-0.8-3.2c0.9-1.7,2.1-4.7,1.6-8c-0.1-0.8-0.3-1.6-0.6-2.3c0.5-2.1,0.9-4.2,0.9-6.3c0-3.1-1.2-8.2-4.2-9.5
	c-0.8-0.3-1.8-0.5-2.9-0.5c-3,0-6.7,1.4-8.2,4.5C7.5,13.9,7.2,17.8,8,22.6c-0.4,0.9-0.7,1.8-0.8,2.8C6.7,29.1,9,32.4,10.6,34.1z
	 M8.3,24.1c0.3,1.6,0.8,3.3,1.3,5.1c0.2,0.6,0.4,1.8,0.7,3.1C9,30.6,7.7,28.1,8,25.4C8,25,8.1,24.5,8.3,24.1z M22.1,20.4
	c-1.1-1.6-2.6-3.1-4.5-4.4c-0.1-0.3-0.2-1.7-0.1-2.9c0,0,0-0.1,0-0.1c0,0,0-0.1,0-0.1c0,0,0-0.1,0-0.1c0,0,0,0,0-0.1
	c0,0,0,0-0.1-0.1c0,0,0,0-0.1,0c0,0-0.1,0-0.1,0c0,0,0,0-0.1,0c0,0,0,0,0,0c0,0,0,0,0,0c-0.1,0-0.3,0.1-0.4,0.2c0,0,0,0,0,0
	c0,0,0,0.1,0,0.1c0,0,0,0,0,0.1c-0.2,1.3-0.5,2.6-0.6,2.8c-2.9,1.4-5,2.9-6.5,4.6c-0.4-3.6-0.1-6.5,1-8.7c1.2-2.4,4.3-3.5,6.7-3.5
	c0.9,0,1.6,0.1,2.2,0.4c1.9,0.8,3.1,4.7,3.1,7.9C22.5,17.8,22.3,19.1,22.1,20.4z M22.1,31.6c0-0.4-0.1-0.8-0.1-1.2
	c0-1.8,0.4-3.8,0.9-5.9c0.1,0.2,0.1,0.5,0.2,0.7C23.4,27.7,22.8,30,22.1,31.6z M12.6,35.5C12.6,35.5,12.6,35.5,12.6,35.5
	c0.2-0.2,0.2-0.5,0-0.6c0,0,0,0-0.1-0.1c-0.1-0.6-0.2-1.3-0.3-1.8c-0.3-1.9-0.6-3.4-0.9-4.3c-0.8-2.6-1.3-4.9-1.7-7.1
	c1.4-1.9,3.7-3.6,6.8-5.1c0.1-0.1,0.2-0.2,0.3-0.4c0.1,0.4,0.2,0.4,0.3,0.5c2.2,1.5,3.8,3.2,4.8,5c-0.1,0.6-0.3,1.3-0.4,1.9
	c-0.5,2.3-1.1,4.7-1.1,7c0,1.2,0.2,2.3,0.5,3.5c-0.1,0.2-0.2,0.3-0.2,0.3c-0.1,0.2-0.1,0.5,0.1,0.6c0.1,0.1,0.2,0.1,0.3,0.1
	c0,0,0.1,0,0.1,0c0.2,0.6,0.3,1.2,0.5,1.8c0.8,2.9,1.6,5.6,0.5,6.9c-0.8,0.9-2,1.5-3.4,1.5c-1.3,0-2.6-0.6-3.5-1.6
	C14.1,42.6,13.3,38.9,12.6,35.5z"/>
</svg>
